<?xml version="1.0" standalone="no"?>
<!DOCTYPE svg PUBLIC "-//W3C//DTD SVG 1.1//EN" "http://www.w3.org/Graphics/SVG/1.1/DTD/svg11.dtd" >
<svg xmlns="http://www.w3.org/2000/svg" xmlns:xlink="http://www.w3.org/1999/xlink" version="1.1">
<metadata></metadata>
<defs>
<font id="euclid_flexbold" horiz-adv-x="1060" >
<font-face units-per-em="2048" ascent="1651" descent="-397" />
<missing-glyph horiz-adv-x="450" />
<glyph horiz-adv-x="0" />
<glyph horiz-adv-x="682" />
<glyph unicode="&#xd;" horiz-adv-x="0" />
<glyph unicode=" "  horiz-adv-x="450" />
<glyph unicode="&#x09;" horiz-adv-x="450" />
<glyph unicode="&#xa0;" horiz-adv-x="450" />
<glyph unicode="!" horiz-adv-x="675" d="M117 205q0 103 82 172h278q82 -69 82 -172q0 -92 -64.5 -156.5t-156.5 -64.5t-156.5 64.5t-64.5 156.5zM182 899v555h312v-555l-62 -377h-188z" />
<glyph unicode="&#x22;" horiz-adv-x="948" d="M137 844v610h260v-610h-260zM551 844v610h260v-610h-260z" />
<glyph unicode="#" horiz-adv-x="1456" d="M51 371v233h244l76 246h-170v233h243l115 371h262l-114 -371h268l115 371h262l-115 -371h168v-233h-242l-76 -246h170v-233h-243l-115 -371h-262l115 371h-269l-114 -371h-263l115 371h-170zM557 604h268l76 246h-268z" />
<glyph unicode="$" horiz-adv-x="1091" d="M61 268l226 185q114 -181 272 -181q69 0 104 34.5t35 88.5q0 49 -38 84.5t-132 77.5l-82 37q-161 72 -241 189t-80 268q0 154 86.5 262t224.5 143v178h260v-180q127 -34 242 -166l-197 -207q-53 59 -89.5 80t-82.5 21q-65 0 -99 -33.5t-34 -85.5q0 -54 44.5 -91 t152.5 -85l78 -35q299 -134 299 -436q0 -162 -83.5 -272t-230.5 -144v-180h-260v176q-255 44 -375 272z" />
<glyph unicode="%" horiz-adv-x="858" d="M113 610v234h632v-234h-632zM154 266q0 116 79.5 196.5t194.5 80.5q116 0 196.5 -80.5t80.5 -196.5q0 -115 -80.5 -194.5t-196.5 -79.5t-195 79t-79 195zM154 1186q0 116 79.5 196t194.5 80q116 0 196.5 -80.5t80.5 -195.5t-80.5 -195t-196.5 -80q-115 0 -194.5 79.5 t-79.5 195.5zM340 266q0 -37 25.5 -62.5t62.5 -25.5t62.5 25.5t25.5 62.5t-25.5 62.5t-62.5 25.5t-62.5 -25.5t-25.5 -62.5zM340 1186q0 -37 25.5 -62.5t62.5 -25.5t62.5 25.5t25.5 62.5t-25.5 62.5t-62.5 25.5t-62.5 -25.5t-25.5 -62.5z" />
<glyph unicode="&#x26;" horiz-adv-x="1261" d="M41 451q0 183 124 317.5t304 149.5l-262 536h829v-270h-354l580 -1184h-344l-74 150q-110 -166 -336 -166q-127 0 -234.5 62.5t-170 170t-62.5 234.5zM340 451q0 -71 49.5 -123t118.5 -52t118.5 52t49.5 123t-49.5 122.5t-118.5 51.5t-118.5 -51.5t-49.5 -122.5z" />
<glyph unicode="'" horiz-adv-x="534" d="M137 844v610h260v-610h-260z" />
<glyph unicode="(" horiz-adv-x="577" d="M113 614q0 538 225 951l227 -101q-192 -450 -192 -850t192 -850l-227 -100q-225 413 -225 950z" />
<glyph unicode=")" horiz-adv-x="577" d="M12 -236l228 -100q225 413 225 950q0 538 -225 951l-228 -101q193 -452 193 -850t-193 -850z" />
<glyph unicode="*" horiz-adv-x="1015" d="M47 1042l66 201l290 -94v305h211v-305l289 96l66 -201l-289 -96l180 -246l-170 -122l-180 243l-182 -243l-170 122l180 246z" />
<glyph unicode="+" horiz-adv-x="1208" d="M158 461v233h329v330h234v-330h330v-233h-330v-330h-234v330h-329z" />
<glyph unicode="," horiz-adv-x="630" d="M137 0v356h357v-356l-132 -315h-178l90 315h-137z" />
<glyph unicode="-" horiz-adv-x="757" d="M88 430v295h582v-295h-582z" />
<glyph unicode="." horiz-adv-x="675" d="M117 205q0 92 64.5 156.5t156.5 64.5t156.5 -64.5t64.5 -156.5t-64.5 -156.5t-156.5 -64.5t-156.5 64.5t-64.5 156.5z" />
<glyph unicode="/" horiz-adv-x="956" d="M0 0l678 1454h278l-677 -1454h-279z" />
<glyph unicode="0" horiz-adv-x="1658" d="M80 727q0 151 60 288.5t160.5 237t239 158.5t289.5 59q202 0 374.5 -99.5t274 -271t101.5 -372.5t-101.5 -372.5t-274 -271t-374.5 -99.5q-151 0 -289.5 59t-239 158.5t-160.5 237t-60 288.5zM391 727q0 -191 124 -323t314 -132t314.5 132t124.5 323t-124.5 323 t-314.5 132t-314 -132t-124 -323z" />
<glyph unicode="1" horiz-adv-x="626" d="M158 0v1159l311 311v-1470h-311z" />
<glyph unicode="2" horiz-adv-x="1187" d="M0 0l446 551q-148 46 -241.5 169t-93.5 281q0 128 65 236.5t176 170.5t240 62t240 -62t177 -170.5t66 -236.5q0 -166 -110 -299l-334 -413h442v-289h-1073zM422 1001q0 -76 47 -129t123 -53t124 53t48 129t-48 128.5t-124 52.5t-123 -52.5t-47 -128.5z" />
<glyph unicode="3" horiz-adv-x="1062" d="M31 188l219 203q79 -119 205 -119q101 0 161 59.5t60 160.5t-60 160t-161 59h-148l215 454h-424v289h879l-242 -512q120 -62 187 -178.5t67 -271.5q0 -230 -141.5 -369t-372.5 -139q-137 0 -253.5 54t-190.5 150z" />
<glyph unicode="4" horiz-adv-x="1206" d="M-31 328l1041 1142v-872h135v-270h-135v-328h-312v328h-729zM539 598h159v174z" />
<glyph unicode="5" horiz-adv-x="1118" d="M102 188l226 209q83 -125 198 -125q90 0 144.5 57.5t54.5 139.5t-54.5 139.5t-144.5 57.5q-68 0 -115.5 -33t-68.5 -88l-201 84v825h793v-289h-481v-217q47 6 94 6q222 0 356.5 -132t134.5 -353t-134.5 -353t-356.5 -132q-140 0 -257.5 53.5t-187.5 150.5z" />
<glyph unicode="6" horiz-adv-x="1095" d="M35 469q0 72 24 137t68 146l383 702h346l-274 -502q204 -12 338.5 -149.5t134.5 -333.5q0 -206 -146 -345.5t-364 -139.5t-364 139.5t-146 345.5zM346 469q0 -82 54.5 -139.5t144.5 -57.5t144 57.5t54 139.5t-54 139.5t-144 57.5t-144.5 -57.5t-54.5 -139.5z" />
<glyph unicode="7" horiz-adv-x="1064" d="M72 1165v289h1007l-659 -1454h-336l528 1165h-540z" />
<glyph unicode="8" horiz-adv-x="1163" d="M72 469q0 117 50 211.5t140 155.5q-82 98 -82 231q0 167 117.5 285t284.5 118t284 -118t117 -285q0 -133 -82 -231q90 -61 140.5 -156t50.5 -211q0 -206 -146 -345.5t-364 -139.5t-364 139.5t-146 345.5zM383 469q0 -82 54.5 -139.5t144.5 -57.5t144 57.5t54 139.5 t-54 139.5t-144 57.5t-144.5 -57.5t-54.5 -139.5zM471 1067q0 -48 30 -81.5t81 -33.5t80.5 33.5t29.5 81.5t-29.5 81.5t-80.5 33.5t-81 -33.5t-30 -81.5z" />
<glyph unicode="9" horiz-adv-x="1095" d="M41 985q0 206 146 345.5t364 139.5t364 -139.5t146 -345.5q0 -72 -24 -137t-68 -146l-383 -702h-346l272 502q-204 12 -337.5 149t-133.5 334zM352 985q0 -82 54.5 -139.5t144.5 -57.5t144.5 57.5t54.5 139.5t-54.5 139.5t-144.5 57.5t-144.5 -57.5t-54.5 -139.5z" />
<glyph unicode=":" horiz-adv-x="675" d="M117 205q0 92 64.5 156.5t156.5 64.5t156.5 -64.5t64.5 -156.5t-64.5 -156.5t-156.5 -64.5t-156.5 64.5t-64.5 156.5zM117 819q0 92 64.5 156.5t156.5 64.5t156.5 -64.5t64.5 -156.5t-64.5 -156.5t-156.5 -64.5t-156.5 64.5t-64.5 156.5z" />
<glyph unicode=";" horiz-adv-x="675" d="M117 819q0 92 64.5 156.5t156.5 64.5t156.5 -64.5t64.5 -156.5t-64.5 -156.5t-156.5 -64.5t-156.5 64.5t-64.5 156.5zM160 0v356h356v-356l-131 -315h-178l90 315h-137z" />
<glyph unicode="&#x3c;" horiz-adv-x="942" d="M72 580l592 596l174 -175l-420 -421l420 -422l-174 -174z" />
<glyph unicode="=" horiz-adv-x="1208" d="M158 250v233h893v-233h-893zM158 672v233h893v-233h-893z" />
<glyph unicode="&#x3e;" horiz-adv-x="942" d="M104 158l420 422l-420 421l175 175l591 -596l-591 -596z" />
<glyph unicode="?" horiz-adv-x="1001" d="M20 995q0 199 136.5 337t339.5 138t342 -138t139 -337q0 -98 -38 -185t-104.5 -150.5t-163 -100.5t-208.5 -37h-137v289h137q91 0 147 46.5t56 137.5q0 89 -51 138t-119 49q-67 0 -115.5 -48.5t-48.5 -138.5h-312zM233 205q0 106 82 172h279q82 -69 82 -172 q0 -92 -64.5 -156.5t-156.5 -64.5t-157 64.5t-65 156.5z" />
<glyph unicode="@" horiz-adv-x="1636" d="M70 690q0 171 64.5 318.5t173 247.5t252.5 157t302 57q201 0 361 -77.5t252 -223.5t92 -338q0 -128 -32 -227t-86.5 -156t-120 -85.5t-138.5 -28.5q-68 0 -122 28.5t-79 75.5q-47 -46 -115 -73t-137 -27q-162 0 -251 100t-89 252q0 189 125 319t320 130q109 0 184 -56 l8 35h195l-96 -450q-15 -73 6 -117.5t84 -44.5q85 0 128.5 78t43.5 252q0 116 -43.5 207.5t-118.5 147.5t-170 85t-203 29q-120 0 -229 -41.5t-194.5 -117.5t-136 -194t-50.5 -262q0 -244 144.5 -389t389.5 -145q197 0 361 84l67 -166q-94 -42 -210 -66t-218 -24 q-162 0 -297.5 55t-226 150t-140.5 224t-50 277zM610 707q0 -82 40.5 -129.5t119.5 -47.5q92 0 150 58l65 303q-54 57 -141 57q-101 0 -167.5 -69t-66.5 -172z" />
<glyph unicode="A" horiz-adv-x="1392" d="M-20 0l716 1470l717 -1470h-344l-104 225h-537l-104 -225h-344zM559 492h275l-138 303z" />
<glyph unicode="B" horiz-adv-x="1271" d="M137 0v1454h547q178 0 305 -127t127 -305q0 -148 -102 -250q95 -51 150 -138.5t55 -201.5q0 -180 -128.5 -306t-312.5 -126h-641zM465 301h283q65 0 108 41t43 102t-43 103.5t-108 42.5h-283v-289zM465 866h182q65 0 108.5 41.5t43.5 102.5t-43.5 103t-108.5 42h-182 v-289z" />
<glyph unicode="C" horiz-adv-x="1452" d="M70 727q0 151 59 288.5t158.5 237t237 158.5t288.5 59q184 0 344.5 -85t263.5 -230l-247 -203q-57 92 -152 147.5t-209 55.5q-175 0 -294.5 -125.5t-119.5 -302.5t119.5 -302.5t294.5 -125.5q114 0 209 55.5t152 147.5l247 -203q-103 -145 -263.5 -230t-344.5 -85 q-151 0 -288.5 59t-237 158.5t-158.5 237t-59 288.5z" />
<glyph unicode="D" horiz-adv-x="1456" d="M137 0v1454h510q151 0 288 -57.5t235.5 -155t157 -232t58.5 -282.5t-58.5 -282.5t-157 -232t-235.5 -155t-288 -57.5h-510zM465 299h182q179 0 294.5 124.5t115.5 303.5t-115.5 303.5t-294.5 124.5h-182v-856z" />
<glyph unicode="E" horiz-adv-x="1120" d="M137 0v1454h901v-324h-573v-245h450v-316h-450v-245h573v-324h-901z" />
<glyph unicode="F" horiz-adv-x="1058" d="M137 0v1454h860v-324h-532v-245h409v-316h-409v-569h-328z" />
<glyph unicode="G" horiz-adv-x="1492" d="M70 727q0 151 59 288.5t158.5 237t237 158.5t288.5 59q366 0 588 -274l-248 -203q-67 85 -146 123.5t-194 38.5q-175 0 -294.5 -125.5t-119.5 -302.5t119.5 -302.5t294.5 -125.5q179 0 281 72v202h-351l140 308h528v-660q-207 -237 -598 -237q-151 0 -288.5 59 t-237 158.5t-158.5 237t-59 288.5z" />
<glyph unicode="H" horiz-adv-x="1511" d="M137 0v1454h328v-569h582v569h327v-1454h-327v569h-582v-569h-328z" />
<glyph unicode="I" horiz-adv-x="602" d="M137 0v1454h328v-1454h-328z" />
<glyph unicode="J" horiz-adv-x="1038" d="M20 434h328q0 -145 123 -145t123 145v1020h328v-1040q0 -111 -35.5 -195.5t-98.5 -134.5t-142.5 -75t-174.5 -25t-175 26.5t-142.5 79.5t-98 141t-35.5 203z" />
<glyph unicode="K" horiz-adv-x="1374" d="M137 0v1454h328v-729l508 729h377l-510 -733l575 -721h-405l-545 682v-682h-328z" />
<glyph unicode="L" d="M137 0v1454h328v-1128h565v-326h-893z" />
<glyph unicode="M" horiz-adv-x="1724" d="M137 0v1470l725 -727l725 727v-1470h-327v713l-398 -398l-397 398v-713h-328z" />
<glyph unicode="N" horiz-adv-x="1519" d="M137 0v1470l918 -776v760h327v-1470l-917 776v-760h-328z" />
<glyph unicode="O" horiz-adv-x="1626" d="M70 727q0 151 59 288.5t158.5 237t237 158.5t288.5 59t288.5 -59t237 -158.5t158.5 -237t59 -288.5t-59 -288.5t-158.5 -237t-237 -158.5t-288.5 -59t-288.5 59t-237 158.5t-158.5 237t-59 288.5zM399 727q0 -177 119.5 -302.5t294.5 -125.5t294.5 125.5t119.5 302.5 t-119.5 302.5t-294.5 125.5t-294.5 -125.5t-119.5 -302.5z" />
<glyph unicode="P" horiz-adv-x="1140" d="M137 0v1454h479q140 0 254.5 -66t179 -179t64.5 -248t-64.5 -248t-179 -179.5t-254.5 -66.5h-151v-467h-328zM465 772h147q78 0 131.5 57t53.5 132t-53.5 130.5t-131.5 55.5h-147v-375z" />
<glyph unicode="Q" horiz-adv-x="1667" d="M70 727q0 151 59 288.5t158.5 237t237 158.5t288.5 59t288.5 -59t237 -158.5t158.5 -237t59 -288.5q0 -185 -86 -348l207 -166l-186 -229l-207 168q-204 -168 -471 -168q-151 0 -288.5 59t-237 158.5t-158.5 237t-59 288.5zM399 727q0 -177 119.5 -302.5t294.5 -125.5 q123 0 215 59l-221 181l186 227l213 -172q21 72 21 133q0 177 -119.5 302.5t-294.5 125.5t-294.5 -125.5t-119.5 -302.5z" />
<glyph unicode="R" horiz-adv-x="1280" d="M137 0v1454h549q178 0 305 -127t127 -305q0 -136 -76.5 -246t-203.5 -160l473 -616h-391l-451 590h-4v-590h-328zM465 866h184q65 0 108.5 41.5t43.5 102.5t-43.5 103t-108.5 42h-184v-289z" />
<glyph unicode="S" horiz-adv-x="1064" d="M35 268l248 203q49 -78 122 -129t146 -51q139 0 139 104q0 49 -38 84.5t-132 77.5l-82 37q-164 74 -252 191.5t-88 265.5q0 123 63 220t163.5 148t216.5 51q129 0 224 -39.5t183 -142.5l-221 -233q-53 65 -92.5 86.5t-93.5 21.5q-45 0 -79 -26.5t-34 -73.5 q0 -54 44.5 -91t152.5 -85l77 -35q318 -142 318 -436q0 -195 -129.5 -313.5t-333.5 -118.5q-177 0 -312.5 72.5t-209.5 211.5z" />
<glyph unicode="T" horiz-adv-x="1103" d="M39 1130v324h1026v-324h-350v-1130h-328v1130h-348z" />
<glyph unicode="U" horiz-adv-x="1437" d="M123 590v864h328v-868q0 -131 73.5 -209t194.5 -78t194.5 78t73.5 209v868h328v-864q0 -272 -166.5 -439t-429.5 -167t-429.5 167t-166.5 439z" />
<glyph unicode="V" horiz-adv-x="1331" d="M-20 1454h364l322 -727l321 727h365l-686 -1470z" />
<glyph unicode="W" horiz-adv-x="1794" d="M10 1454h334l225 -682l328 698l328 -698l225 682h334l-504 -1470l-383 837l-383 -837z" />
<glyph unicode="X" horiz-adv-x="1380" d="M0 0l459 729l-428 725h379l280 -483l281 483h379l-428 -725l458 -729h-381l-309 500l-309 -500h-381z" />
<glyph unicode="Y" horiz-adv-x="1343" d="M-31 1454h383l320 -516l319 516h383l-538 -844v-610h-328v610z" />
<glyph unicode="Z" horiz-adv-x="1277" d="M16 0l674 1130h-588v324h1147l-674 -1130h631v-324h-1190z" />
<glyph unicode="[" horiz-adv-x="593" d="M121 -326v1880h473v-221h-213v-1437h213v-222h-473z" />
<glyph unicode="\" horiz-adv-x="956" d="M0 1454h279l677 -1454h-278z" />
<glyph unicode="]" horiz-adv-x="593" d="M0 -104v-222h473v1880h-473v-221h213v-1437h-213z" />
<glyph unicode="^" horiz-adv-x="1191" d="M27 616l569 854l569 -854h-280l-289 433l-289 -433h-280z" />
<glyph unicode="_" horiz-adv-x="892" d="M0 0h893v-233h-893v233z" />
<glyph unicode="`" horiz-adv-x="886" d="M164 1454h354l164 -317h-225z" />
<glyph unicode="a" horiz-adv-x="1216" d="M66 512q0 141 59.5 261t174 193.5t261.5 73.5q132 0 225 -77v61h310v-1024h-310v59q-90 -75 -225 -75q-147 0 -261.5 73.5t-174 193.5t-59.5 261zM377 512q0 -105 64 -175.5t171 -70.5q108 0 174 84v322q-67 86 -174 86t-171 -70.5t-64 -175.5z" />
<glyph unicode="b" horiz-adv-x="1216" d="M121 0v1454h309v-491q93 77 225 77q111 0 205 -43t157 -115.5t98.5 -168.5t35.5 -201t-35.5 -201t-98.5 -168.5t-157 -115.5t-205 -43q-135 0 -225 75v-59h-309zM430 350q63 -84 174 -84q107 0 171.5 70.5t64.5 175.5t-64.5 175.5t-171.5 70.5q-110 0 -174 -86v-322z" />
<glyph unicode="c" horiz-adv-x="1069" d="M61 512q0 143 71 264.5t194 192.5t268 71q139 0 257.5 -65t190.5 -176l-245 -174q-32 59 -84.5 93t-118.5 34q-96 0 -158.5 -67.5t-62.5 -172.5t62.5 -172.5t158.5 -67.5q66 0 118.5 34t84.5 93l245 -174q-72 -111 -190.5 -176t-257.5 -65q-145 0 -268 71t-194 192.5 t-71 264.5z" />
<glyph unicode="d" horiz-adv-x="1216" d="M66 512q0 141 59.5 261t174 193.5t261.5 73.5q132 0 225 -77v491h310v-1454h-310v59q-90 -75 -225 -75q-147 0 -261.5 73.5t-174 193.5t-59.5 261zM377 512q0 -105 64 -175.5t171 -70.5q108 0 174 84v322q-67 86 -174 86t-171 -70.5t-64 -175.5z" />
<glyph unicode="e" horiz-adv-x="1142" d="M61 512q0 228 147.5 378t381.5 150q99 0 187 -32t156.5 -92.5t109 -155.5t40.5 -213q0 -43 -6 -90h-719q5 -49 27.5 -87t55.5 -60t69 -33t72 -11q149 0 219 129l246 -166q-72 -113 -193 -179t-270 -66q-101 0 -195.5 39t-167 106.5t-116.5 167.5t-44 215zM360 637h418 q-11 78 -68.5 117t-138.5 39q-69 0 -130 -36.5t-81 -119.5z" />
<glyph unicode="f" horiz-adv-x="741" d="M33 754v270h149q-63 69 -63 170q0 111 75.5 185.5t200.5 74.5h318v-270h-201q-51 0 -75.5 -22t-24.5 -58q0 -34 23 -57t57 -23h221v-270h-238v-754h-309v754h-133z" />
<glyph unicode="g" horiz-adv-x="1193" d="M53 549q0 95 33 182.5t92.5 156.5t153 110.5t205.5 41.5q132 0 225 -77v61h309v-825q43 -100 43 -201q0 -84 -30.5 -152t-81.5 -112.5t-120.5 -74.5t-145 -43t-158.5 -13q-285 0 -461 114l139 273q137 -105 301 -105q103 0 168.5 39t65.5 125q0 50 -27 86 q-94 -78 -227 -78q-112 0 -205.5 41.5t-153 111t-92.5 157t-33 182.5zM365 549q0 -84 57.5 -146.5t155.5 -62.5q114 0 184 86v246q-70 86 -184 86q-98 0 -155.5 -62.5t-57.5 -146.5z" />
<glyph unicode="h" horiz-adv-x="1222" d="M121 0v1454h309v-493q94 79 236 79q212 0 329 -128.5t117 -340.5v-571h-309v516q0 110 -46.5 176t-142.5 66q-46 0 -96.5 -23.5t-87.5 -64.5v-670h-309z" />
<glyph unicode="i" horiz-adv-x="552" d="M92 1286q0 76 54 130t130 54q77 0 131 -54t54 -130q0 -70 -41 -117h-287q-41 47 -41 117zM121 0v1024h309v-1024h-309z" />
<glyph unicode="j" horiz-adv-x="552" d="M-92 -84h53q80 0 121 27t41 96v985h309v-1024q0 -183 -122 -280t-330 -97h-72v293zM92 1286q0 76 54 130t130 54q77 0 131 -54t54 -130q0 -70 -41 -117h-287q-41 47 -41 117z" />
<glyph unicode="k" horiz-adv-x="1148" d="M121 0v1454h309v-897l334 467h356l-348 -485l402 -539h-365l-379 510v-510h-309z" />
<glyph unicode="l" horiz-adv-x="550" d="M121 0v1454h309v-1454h-309z" />
<glyph unicode="m" horiz-adv-x="1822" d="M121 0v1024h309v-61q45 35 107.5 56t126.5 21q175 0 290 -125q52 52 136 88.5t192 36.5q111 0 195.5 -37t134.5 -102t75 -148t25 -182v-571h-309v516q0 240 -162 240q-52 0 -99.5 -24t-78.5 -66q8 -62 8 -95v-571h-309v516q0 240 -162 240q-104 0 -170 -82v-674h-309z " />
<glyph unicode="n" horiz-adv-x="1222" d="M121 0v1024h309v-63q94 79 236 79q212 0 329 -128.5t117 -340.5v-571h-309v516q0 110 -46.5 176t-142.5 66q-46 0 -96.5 -23.5t-87.5 -64.5v-670h-309z" />
<glyph unicode="o" horiz-adv-x="1187" d="M61 512q0 143 71 264.5t194 192.5t268 71t267.5 -71t193.5 -192.5t71 -264.5t-71 -264.5t-193.5 -192.5t-267.5 -71t-268 71t-194 192.5t-71 264.5zM373 512q0 -105 62.5 -172.5t158.5 -67.5t158.5 67.5t62.5 172.5t-62.5 172.5t-158.5 67.5t-158.5 -67.5t-62.5 -172.5z " />
<glyph unicode="p" horiz-adv-x="1216" d="M121 -377v1401h309v-61q93 77 225 77q111 0 205 -43t157 -115.5t98.5 -168.5t35.5 -201t-35.5 -201t-98.5 -168.5t-157 -115.5t-205 -43q-135 0 -225 75v-436h-309zM430 350q63 -84 174 -84q107 0 171.5 70.5t64.5 175.5t-64.5 175.5t-171.5 70.5q-110 0 -174 -86v-322z " />
<glyph unicode="q" horiz-adv-x="1216" d="M66 512q0 141 59.5 261t174 193.5t261.5 73.5q132 0 225 -77v61h310v-1401h-310v436q-90 -75 -225 -75q-147 0 -261.5 73.5t-174 193.5t-59.5 261zM377 512q0 -105 64 -175.5t171 -70.5q108 0 174 84v322q-67 86 -174 86t-171 -70.5t-64 -175.5z" />
<glyph unicode="r" horiz-adv-x="802" d="M121 0v1024h309v-90q86 106 234 106q58 0 110 -16v-322q-66 35 -158 35q-49 0 -99.5 -18t-86.5 -49v-670h-309z" />
<glyph unicode="s" horiz-adv-x="849" d="M12 201l236 159q69 -124 188 -124q80 0 80 47q0 28 -23.5 43t-105.5 47l-53 20q-133 52 -202 136.5t-69 193.5q0 139 101.5 228t251.5 89q212 0 323 -161l-176 -174q-65 92 -147 92q-74 0 -74 -47q0 -29 25.5 -45t109.5 -48l43 -16q144 -55 209.5 -135.5t65.5 -196.5 q0 -152 -104.5 -238.5t-266.5 -86.5q-288 0 -412 217z" />
<glyph unicode="t" horiz-adv-x="843" d="M-25 1024h201v154l309 153v-307h324l-68 -270h-256v-351q0 -64 28 -92t91 -28h168v-283h-283q-145 0 -229 84.5t-84 230.5v439h-133z" />
<glyph unicode="u" horiz-adv-x="1222" d="M111 453v571h309v-516q0 -109 45.5 -175.5t134.5 -66.5q58 0 110.5 27t82.5 76v655h309v-1024h-309v76q-46 -43 -112 -67.5t-132 -24.5q-204 0 -321 128.5t-117 340.5z" />
<glyph unicode="v" horiz-adv-x="1130" d="M-31 1024h357l239 -446l240 446h356l-596 -1040z" />
<glyph unicode="w" horiz-adv-x="1495" d="M0 1024h326l170 -575l252 591l251 -591l170 575h326l-326 -1024h-235l-186 420l-187 -420h-235z" />
<glyph unicode="x" horiz-adv-x="1126" d="M-6 0l368 516l-350 508h359l192 -293l193 293h358l-350 -508l369 -516h-359l-211 307l-211 -307h-358z" />
<glyph unicode="y" d="M-10 1024h327l213 -647l213 647h328l-516 -1401h-328l140 377z" />
<glyph unicode="z" horiz-adv-x="1050" d="M25 0l475 758h-414v266h930l-473 -756h442v-268h-960z" />
<glyph unicode="{" horiz-adv-x="659" d="M61 504v221h17q56 0 82 30t26 79v430q0 132 79.5 211t211.5 79h182v-221h-96q-63 0 -90 -26.5t-27 -89.5v-402q0 -86 -34.5 -136.5t-92.5 -64.5q58 -14 92.5 -64t34.5 -136v-402q0 -63 27 -89.5t90 -26.5h96v-222h-170q-133 0 -218 80t-85 211v430q0 49 -26 79t-82 30 h-17z" />
<glyph unicode="|" horiz-adv-x="575" d="M158 -377v1831h260v-1831h-260z" />
<glyph unicode="}" horiz-adv-x="659" d="M0 -104v-222h170q133 0 218 80t85 211v430q0 48 26.5 78.5t82.5 30.5h16v221h-16q-56 0 -82.5 30.5t-26.5 78.5v430q0 132 -79.5 211t-211.5 79h-182v-221h96q63 0 90 -26.5t27 -89.5v-402q0 -86 34.5 -136.5t92.5 -64.5q-58 -14 -92.5 -64t-34.5 -136v-402 q0 -63 -27 -89.5t-90 -26.5h-96z" />
<glyph unicode="~" horiz-adv-x="1208" d="M158 365v276l280 172l332 -192l281 170v-277l-281 -172l-332 193z" />
<glyph unicode="&#xa2;" horiz-adv-x="1132" d="M88 512q0 183 113 325t288 187v180h261v-180q100 -25 182.5 -83.5t136.5 -141.5l-246 -174q-32 59 -84 93t-118 34q-96 0 -159 -67.5t-63 -172.5t63 -172.5t159 -67.5q66 0 118 34t84 93l246 -174q-55 -84 -137.5 -143t-181.5 -82v-180h-261v180q-175 43 -288 186 t-113 326z" />
<glyph unicode="&#xa3;" horiz-adv-x="1241" d="M123 0v289h156v317h-156v240h131q-33 67 -33 168q0 115 61 219.5t171 170.5t241 66q192 0 329.5 -132.5t145.5 -323.5h-311q0 73 -47 120.5t-117 47.5q-69 0 -115.5 -47.5t-46.5 -120.5t46.5 -120.5t115.5 -47.5h164v-240h-268v-317h579v-289h-1046z" />
<glyph unicode="&#xa5;" horiz-adv-x="1400" d="M6 1454h367l325 -528l330 528h367l-389 -610h213v-234h-363v-157h363v-234h-363v-219h-311v219h-363v234h363v157h-363v234h213z" />
<glyph unicode="&#xa8;" horiz-adv-x="1183" d="M184 1325q0 67 48 115.5t116 48.5t116 -48.5t48 -115.5t-48 -115.5t-116 -48.5t-116 48.5t-48 115.5zM672 1325q0 67 48 115.5t116 48.5q67 0 115 -48t48 -116t-48 -116t-115 -48q-68 0 -116 48.5t-48 115.5z" />
<glyph unicode="&#xa9;" horiz-adv-x="1626" d="M70 727q0 151 59 288.5t158.5 237t237 158.5t288.5 59t288.5 -59t237 -158.5t158.5 -237t59 -288.5t-59 -288.5t-158.5 -237t-237 -158.5t-288.5 -59t-288.5 59t-237 158.5t-158.5 237t-59 288.5zM285 727q0 -143 71 -264.5t192.5 -192.5t264.5 -71t264.5 71t192.5 192.5 t71 264.5t-71 264.5t-192.5 192.5t-264.5 71t-264.5 -71t-192.5 -192.5t-71 -264.5zM481 727q0 145 102.5 247.5t247.5 102.5q91 0 170 -44.5t125 -119.5l-153 -108q-20 40 -57.5 66t-84.5 26q-68 0 -112.5 -50t-44.5 -120t44.5 -120t112.5 -50q48 0 85.5 25t58.5 65 l151 -106q-46 -75 -125 -119.5t-170 -44.5q-145 0 -247.5 102.5t-102.5 247.5z" />
<glyph unicode="&#xab;" horiz-adv-x="1177" d="M70 512l336 494l204 -140l-241 -354l241 -354l-204 -140zM551 512l336 494l205 -140l-242 -354l242 -354l-205 -140z" />
<glyph unicode="&#xad;" horiz-adv-x="757" d="M88 430v295h582v-295h-582z" />
<glyph unicode="&#xae;" horiz-adv-x="1626" d="M70 727q0 151 59 288.5t158.5 237t237 158.5t288.5 59t288.5 -59t237 -158.5t158.5 -237t59 -288.5t-59 -288.5t-158.5 -237t-237 -158.5t-288.5 -59t-288.5 59t-237 158.5t-158.5 237t-59 288.5zM285 727q0 -143 71 -264.5t192.5 -192.5t264.5 -71t264.5 71t192.5 192.5 t71 264.5t-71 264.5t-192.5 192.5t-264.5 71t-264.5 -71t-192.5 -192.5t-71 -264.5zM584 383v688h266q91 0 151 -61t60 -150q0 -61 -30 -110.5t-81 -75.5l178 -291h-198l-162 266v-266h-184zM764 799h63q24 0 39 15.5t15 37.5q0 23 -14 38t-38 15h-65v-106z" />
<glyph unicode="&#xb4;" horiz-adv-x="886" d="M205 1137l164 317h354l-293 -317h-225z" />
<glyph unicode="&#xb8;" horiz-adv-x="720" d="M170 -274l121 274h209l-70 -274h-260z" />
<glyph unicode="&#xbb;" horiz-adv-x="1177" d="M86 158l205 -140l336 494l-336 494l-205 -140l242 -354zM567 158l205 -140l336 494l-336 494l-205 -140l242 -354z" />
<glyph unicode="&#x2c6;" horiz-adv-x="1048" d="M160 1305l364 186l365 -186l-98 -187l-267 127l-266 -127z" />
<glyph unicode="&#x2da;" horiz-adv-x="778" d="M143 1364q0 101 72.5 173.5t173.5 72.5t173.5 -72.5t72.5 -173.5t-72.5 -173.5t-173.5 -72.5t-173.5 72.5t-72.5 173.5zM293 1364q0 -40 28 -68t68 -28t68 28t28 68t-28 68t-68 28t-68 -28t-28 -68z" />
<glyph unicode="&#x2dc;" horiz-adv-x="1126" d="M168 1135l8 59q14 108 85.5 173t154.5 65q51 0 102.5 -20.5t91.5 -41t64 -20.5q36 0 56 19.5t32 66.5h196l-8 -60q-14 -108 -85 -172.5t-154 -64.5q-51 0 -102.5 20.5t-91.5 41t-64 20.5q-36 0 -56 -19.5t-32 -66.5h-197z" />
<glyph unicode="&#x401;" horiz-adv-x="1150" d="M147 0v1454h902v-324h-574v-245h451v-316h-451v-245h574v-324h-902zM190 1741q0 67 48 115.5t116 48.5t116 -48.5t48 -115.5t-48 -115.5t-116 -48.5t-116 48.5t-48 115.5zM678 1741q0 67 48 115.5t116 48.5t116 -48.5t48 -115.5t-48 -115.5t-116 -48.5t-116 48.5 t-48 115.5z" />
<glyph unicode="&#x402;" horiz-adv-x="1517" d="M39 1130v324h1026v-324h-393v-253q128 41 291 41q141 0 247 -63.5t160.5 -170t54.5 -238.5v-16q0 -118 -30.5 -215t-82.5 -162.5t-122.5 -110.5t-148.5 -65t-162 -20h-23v293h21q96 0 159.5 62.5t63.5 174.5v12q0 102 -62.5 152.5t-169.5 50.5q-111 0 -196 -39v-563h-328 v1130h-305z" />
<glyph unicode="&#x403;" horiz-adv-x="1038" d="M147 0v1454h850v-324h-522v-1130h-328zM426 1593l143 297h340l-258 -297h-225z" />
<glyph unicode="&#x404;" horiz-adv-x="1488" d="M78 727q0 151 59 288.5t158.5 237t237 158.5t288.5 59q184 0 345 -85t264 -230l-248 -203q-57 92 -152 147.5t-209 55.5q-135 0 -240 -78.5t-149 -202.5h576v-294h-576q44 -124 149 -202.5t240 -78.5q114 0 209 55.5t152 147.5l248 -203q-103 -145 -264 -230t-345 -85 q-151 0 -288.5 59t-237 158.5t-158.5 237t-59 288.5z" />
<glyph unicode="&#x405;" horiz-adv-x="1081" d="M43 268l248 203q49 -78 122 -129t146 -51q139 0 139 104q0 49 -38 84.5t-132 77.5l-82 37q-164 74 -252 191.5t-88 265.5q0 123 63 220t163.5 148t216.5 51q129 0 224 -39.5t183 -142.5l-221 -233q-53 65 -92.5 86.5t-93.5 21.5q-45 0 -79 -26.5t-34 -73.5 q0 -54 44.5 -91t152.5 -85l78 -35q317 -142 317 -436q0 -195 -129.5 -313.5t-333.5 -118.5q-177 0 -312.5 72.5t-209.5 211.5z" />
<glyph unicode="&#x406;" horiz-adv-x="622" d="M147 0v1454h328v-1454h-328z" />
<glyph unicode="&#x407;" horiz-adv-x="622" d="M-96 1720q0 68 48 116t116 48q67 0 115 -48t48 -116t-48 -116t-115 -48q-68 0 -116 48t-48 116zM147 0v1454h328v-1454h-328zM391 1720q0 68 48.5 116t115.5 48t115.5 -48t48.5 -116t-48.5 -116t-115.5 -48t-115.5 48t-48.5 116z" />
<glyph unicode="&#x408;" d="M20 434h328q0 -145 123 -145t123 145v1020h328v-1040q0 -111 -35.5 -195.5t-98.5 -134.5t-142.5 -75t-174.5 -25t-175 26.5t-142.5 79.5t-98 141t-35.5 203z" />
<glyph unicode="&#x409;" horiz-adv-x="1910" d="M20 0l687 1470l243 -524h402q219 0 358 -127t139 -346q0 -216 -139.5 -344.5t-357.5 -128.5h-324l-321 727l-322 -727h-365zM1094 641l155 -334h99q82 0 133 43.5t51 122.5q0 80 -51 124t-133 44h-254z" />
<glyph unicode="&#x40a;" horiz-adv-x="1992" d="M147 0v1454h328v-569h500v569h328v-569h131q226 0 361.5 -120.5t135.5 -311.5q0 -190 -142.5 -321.5t-354.5 -131.5h-459v569h-500v-569h-328zM1303 307h127q92 0 138 32.5t46 104.5q0 125 -184 125h-127v-262z" />
<glyph unicode="&#x40b;" horiz-adv-x="1546" d="M39 1130v324h1026v-324h-387v-251q128 41 291 41q216 0 350.5 -131.5t134.5 -339.5v-449h-328v362q0 129 -54.5 185.5t-160.5 56.5q-143 0 -233 -41v-563h-328v1130h-311z" />
<glyph unicode="&#x40c;" horiz-adv-x="1384" d="M147 0v1454h328v-729l508 729h377l-510 -733l575 -721h-405l-545 682v-682h-328zM610 1593l144 297h340l-258 -297h-226z" />
<glyph unicode="&#x40e;" horiz-adv-x="1419" d="M-31 1454h383l371 -713l354 713h373l-723 -1454h-373l181 362zM328 1872h252q3 -148 122 -148q120 0 123 148h252q-6 -178 -108 -269.5t-267 -91.5t-266.5 91.5t-107.5 269.5z" />
<glyph unicode="&#x40f;" horiz-adv-x="1449" d="M147 0v1454h328v-1139h500v1139h328v-1454h-420v-303h-316v303h-420z" />
<glyph unicode="&#x410;" horiz-adv-x="1392" d="M-20 0l716 1470l717 -1470h-344l-104 225h-537l-104 -225h-344zM559 492h275l-138 303z" />
<glyph unicode="&#x411;" horiz-adv-x="1280" d="M147 0v1454h959v-324h-631v-204h256q213 0 355.5 -133t142.5 -330t-142.5 -330t-355.5 -133h-584zM475 307h252q81 0 132.5 42t51.5 114t-51.5 115t-132.5 43h-252v-314z" />
<glyph unicode="&#x412;" horiz-adv-x="1302" d="M147 0v1454h547q178 0 305 -127t127 -305q0 -148 -102 -250q95 -51 150 -138.5t55 -201.5q0 -180 -128.5 -306t-312.5 -126h-641zM475 301h283q65 0 108 41t43 102t-43 103.5t-108 42.5h-283v-289zM475 866h182q65 0 108.5 41.5t43.5 102.5t-43.5 103t-108.5 42h-182 v-289z" />
<glyph unicode="&#x413;" horiz-adv-x="1038" d="M147 0v1454h850v-324h-522v-1130h-328z" />
<glyph unicode="&#x414;" horiz-adv-x="1581" d="M41 -303v618h166l584 1155l583 -1155h166v-620h-315v305h-869v-303h-315zM555 315h471l-235 490z" />
<glyph unicode="&#x415;" horiz-adv-x="1150" d="M147 0v1454h902v-324h-574v-245h451v-316h-451v-245h574v-324h-902z" />
<glyph unicode="&#x416;" horiz-adv-x="2146" d="M-41 0l576 721l-510 733h376l508 -729v729h328v-729l508 729h377l-510 -733l575 -721h-405l-545 682v-682h-328v682l-544 -682h-406z" />
<glyph unicode="&#x417;" horiz-adv-x="1153" d="M51 248l240 201q124 -158 278 -158q92 0 140.5 49t48.5 121q0 69 -45.5 109t-124.5 40h-203v277h182q66 0 106 39t40 102q0 143 -178 143q-84 0 -141 -26.5t-128 -85.5l-180 229q217 182 485 182q91 0 172 -23.5t146.5 -68.5t104 -119.5t38.5 -168.5q0 -96 -33 -169 t-116 -139q198 -115 198 -346q0 -139 -71 -243.5t-187 -156.5t-258 -52q-313 0 -514 264z" />
<glyph unicode="&#x418;" horiz-adv-x="1540" d="M147 -16v1470h328v-778l918 794v-1470h-328v778z" />
<glyph unicode="&#x419;" horiz-adv-x="1540" d="M147 -16v1470h328v-778l918 794v-1470h-328v778zM471 1872h252q3 -148 123 -148t123 148h252q-6 -178 -108 -269.5t-267 -91.5t-267 91.5t-108 269.5z" />
<glyph unicode="&#x41a;" horiz-adv-x="1384" d="M147 0v1454h328v-729l508 729h377l-510 -733l575 -721h-405l-545 682v-682h-328z" />
<glyph unicode="&#x41b;" horiz-adv-x="1392" d="M-20 0l716 1470l717 -1470h-348l-369 764l-370 -764h-346z" />
<glyph unicode="&#x41c;" horiz-adv-x="1744" d="M147 0v1470l725 -727l725 727v-1470h-327v713l-398 -398l-397 398v-713h-328z" />
<glyph unicode="&#x41d;" horiz-adv-x="1531" d="M147 0v1454h328v-569h582v569h327v-1454h-327v569h-582v-569h-328z" />
<glyph unicode="&#x41e;" horiz-adv-x="1642" d="M78 727q0 151 59 288.5t158.5 237t237 158.5t288.5 59q202 0 373 -99.5t271 -270.5t100 -373t-100 -373t-271 -270.5t-373 -99.5q-151 0 -288.5 59t-237 158.5t-158.5 237t-59 288.5zM408 727q0 -177 119 -302.5t294 -125.5t294.5 125.5t119.5 302.5t-119.5 302.5 t-294.5 125.5t-294 -125.5t-119 -302.5z" />
<glyph unicode="&#x41f;" horiz-adv-x="1501" d="M147 0v1454h1207v-1454h-328v1139h-551v-1139h-328z" />
<glyph unicode="&#x420;" horiz-adv-x="1161" d="M147 0v1454h480q140 0 254.5 -66.5t178.5 -179t64 -247.5t-64 -248t-178.5 -179.5t-254.5 -66.5h-152v-467h-328zM475 772h148q78 0 131 57t53 132t-53 130.5t-131 55.5h-148v-375z" />
<glyph unicode="&#x421;" horiz-adv-x="1488" d="M78 727q0 151 59 288.5t158.5 237t237 158.5t288.5 59q184 0 345 -85t264 -230l-248 -203q-57 92 -152 147.5t-209 55.5q-175 0 -294 -125.5t-119 -302.5t119 -302.5t294 -125.5q114 0 209 55.5t152 147.5l248 -203q-103 -145 -264 -230t-345 -85q-151 0 -288.5 59 t-237 158.5t-158.5 237t-59 288.5z" />
<glyph unicode="&#x422;" horiz-adv-x="1103" d="M39 1130v324h1026v-324h-350v-1130h-328v1130h-348z" />
<glyph unicode="&#x423;" horiz-adv-x="1419" d="M-31 1454h383l371 -713l354 713h373l-723 -1454h-373l181 362z" />
<glyph unicode="&#x424;" horiz-adv-x="1908" d="M70 778q0 162 81 299t221 217t306 80h113v166h327v-166h113q166 0 306 -80t221 -217t81 -299q0 -163 -81 -301t-221 -217.5t-306 -79.5h-113v-180h-327v180h-113q-166 0 -306 79.5t-221 217.5t-81 301zM399 780q0 -126 81 -213.5t206 -87.5h105v598h-105 q-125 0 -206 -86.5t-81 -210.5zM1118 479h105q125 0 205.5 87.5t80.5 213.5q0 124 -80.5 210.5t-205.5 86.5h-105v-598z" />
<glyph unicode="&#x425;" horiz-adv-x="1380" d="M0 0l459 729l-428 725h379l280 -483l281 483h379l-428 -725l458 -729h-381l-309 500l-309 -500h-381z" />
<glyph unicode="&#x426;" horiz-adv-x="1566" d="M147 0v1454h328v-1139h500v1139h328v-1139h192v-618h-315v303h-1033z" />
<glyph unicode="&#x427;" horiz-adv-x="1404" d="M92 958v496h328v-410q0 -125 72 -183t184 -58q164 0 254 41v610h327v-1454h-327v528q-128 -41 -312 -41q-144 0 -264 59.5t-191 168t-71 243.5z" />
<glyph unicode="&#x428;" horiz-adv-x="1974" d="M147 0v1454h328v-1139h348v1139h328v-1139h348v1139h328v-1454h-1680z" />
<glyph unicode="&#x429;" horiz-adv-x="2088" d="M147 0v1454h328v-1139h348v1139h328v-1139h348v1139h328v-1139h190v-618h-315v303h-1555z" />
<glyph unicode="&#x42a;" horiz-adv-x="1484" d="M39 1130v324h674v-508h213q214 0 355.5 -134.5t141.5 -338.5t-141.5 -338.5t-355.5 -134.5h-541v1130h-346zM713 307h209q82 0 133 43.5t51 122.5q0 80 -51 124t-133 44h-209v-334z" />
<glyph unicode="&#x42b;" horiz-adv-x="1839" d="M147 0v1454h328v-508h213q214 0 356 -134.5t142 -338.5t-142 -338.5t-356 -134.5h-541zM475 307h209q82 0 133 43.5t51 122.5q0 80 -51 124t-133 44h-209v-334zM1364 0v1454h328v-1454h-328z" />
<glyph unicode="&#x42c;" horiz-adv-x="1247" d="M147 0v1454h328v-508h213q214 0 356 -134.5t142 -338.5t-142 -338.5t-356 -134.5h-541zM475 307h209q82 0 133 43.5t51 122.5q0 80 -51 124t-133 44h-209v-334z" />
<glyph unicode="&#x42d;" horiz-adv-x="1468" d="M37 299l248 203q57 -92 151.5 -147.5t208.5 -55.5q135 0 240 78.5t149 202.5h-565v294h565q-44 124 -149 202.5t-240 78.5q-114 0 -208.5 -55.5t-151.5 -147.5l-248 203q103 145 263.5 230t344.5 85q202 0 373 -99.5t271 -270.5t100 -373t-100 -373t-271 -270.5 t-373 -99.5q-184 0 -344.5 85t-263.5 230z" />
<glyph unicode="&#x42e;" horiz-adv-x="2232" d="M147 0v1454h328v-569h209q56 253 259.5 419t467.5 166q151 0 288.5 -59t237 -158.5t158.5 -237t59 -288.5t-59 -288.5t-158.5 -237t-237 -158.5t-288.5 -59q-264 0 -467.5 166t-259.5 419h-209v-569h-328zM997 727q0 -177 119.5 -302.5t294.5 -125.5t294.5 125.5 t119.5 302.5t-119.5 302.5t-294.5 125.5t-294.5 -125.5t-119.5 -302.5z" />
<glyph unicode="&#x42f;" horiz-adv-x="1282" d="M31 0l383 526q-118 63 -187 179.5t-69 255.5q0 135 64 247.5t178.5 179t254.5 66.5h480v-1454h-328v467h-64l-335 -467h-377zM475 961q0 -82 52 -135.5t132 -53.5h148v375h-148q-80 0 -132 -52.5t-52 -133.5z" />
<glyph unicode="&#x430;" horiz-adv-x="1236" d="M74 512q0 141 59.5 261t174 193.5t261.5 73.5q133 0 226 -77v61h309v-1024h-309v59q-90 -75 -226 -75q-147 0 -261.5 73.5t-174 193.5t-59.5 261zM385 512q0 -105 64.5 -175.5t171.5 -70.5q108 0 174 84v322q-67 86 -174 86t-171.5 -70.5t-64.5 -175.5z" />
<glyph unicode="&#x431;" horiz-adv-x="1210" d="M82 618v48q0 304 133 502.5t381 250.5l457 94v-299l-400 -84q-124 -26 -194 -92.5t-70 -152.5v-2q46 49 119.5 76.5t161.5 27.5q219 0 345 -136t126 -339q0 -145 -70 -266.5t-192 -191.5t-269 -70q-262 0 -395 167t-133 467zM389 504q0 -110 59.5 -171t159.5 -61 q99 0 160 60.5t61 171.5q0 86 -61 150.5t-160 64.5q-108 0 -163.5 -63.5t-55.5 -151.5z" />
<glyph unicode="&#x432;" horiz-adv-x="1175" d="M133 0v1024h506q80 0 146 -18.5t110.5 -49t75 -71.5t44 -85.5t13.5 -90.5q0 -89 -57 -164q60 -45 91.5 -107.5t31.5 -122.5q0 -59 -21 -113t-63.5 -100.5t-118 -74t-174.5 -27.5h-584zM442 260h248q39 0 65.5 23.5t26.5 64.5t-26.5 63.5t-65.5 22.5h-248v-174zM442 614 h187q36 0 62 20t26 62t-26 62t-62 20h-187v-164z" />
<glyph unicode="&#x433;" horiz-adv-x="884" d="M133 0v1024h711v-270h-402v-754h-309z" />
<glyph unicode="&#x434;" horiz-adv-x="1234" d="M41 -242v512h135l440 770l441 -770h137v-512h-287v242h-579v-242h-287zM496 270h241l-121 217z" />
<glyph unicode="&#x435;" horiz-adv-x="1159" d="M70 512q0 228 147 378t381 150q99 0 187 -32t157 -92.5t109.5 -155.5t40.5 -213q0 -36 -7 -90h-718q7 -65 44 -110t83 -63t96 -18q149 0 219 129l246 -166q-72 -113 -193 -179t-270 -66q-101 0 -195.5 39t-167 106.5t-116 167.5t-43.5 215zM369 637h417q-11 78 -68.5 117 t-137.5 39q-69 0 -130 -36.5t-81 -119.5z" />
<glyph unicode="&#x436;" horiz-adv-x="1718" d="M-6 0l379 502l-320 522h338l314 -514v514h309v-514l313 514h338l-319 -522l378 -502h-364l-346 461v-461h-309v461l-347 -461h-364z" />
<glyph unicode="&#x437;" horiz-adv-x="995" d="M51 201l211 145q34 -54 86 -82t109 -28q63 0 103 28.5t40 67.5t-29.5 64.5t-76.5 25.5h-144v205h133q40 0 67.5 25.5t27.5 60.5q0 37 -30.5 60.5t-80.5 23.5q-118 0 -201 -99l-178 176q83 89 180.5 127.5t218.5 38.5q85 0 153 -20.5t110.5 -52t70.5 -73t39.5 -81 t11.5 -78.5q0 -122 -96 -194q69 -44 103 -105.5t34 -128.5q0 -57 -25 -111.5t-75.5 -103t-139.5 -78.5t-204 -30q-271 0 -418 217z" />
<glyph unicode="&#x438;" horiz-adv-x="1257" d="M133 -18v1042h309v-481l682 497v-1040h-309v477z" />
<glyph unicode="&#x439;" horiz-adv-x="1257" d="M133 -18v1042h309v-481l682 497v-1040h-309v477zM309 1454h232q1 -85 39 -129.5t104 -44.5t104 44.5t39 129.5h232q-6 -178 -108 -269t-267 -91t-267 91t-108 269z" />
<glyph unicode="&#x43a;" horiz-adv-x="1146" d="M133 0v1024h309v-514l314 514h338l-320 -522l379 -502h-365l-346 461v-461h-309z" />
<glyph unicode="&#x43b;" horiz-adv-x="1130" d="M-31 0l596 1040l596 -1040h-346l-250 463l-262 -463h-334z" />
<glyph unicode="&#x43c;" horiz-adv-x="1495" d="M133 0v1024h236l379 -565l378 565h236v-1024h-309v434l-305 -450l-306 450v-434h-309z" />
<glyph unicode="&#x43d;" horiz-adv-x="1257" d="M133 0v1024h309v-377h373v377h309v-1024h-309v377h-373v-377h-309z" />
<glyph unicode="&#x43e;" horiz-adv-x="1204" d="M70 512q0 143 71 264.5t193.5 192.5t267.5 71t268 -71t194 -192.5t71 -264.5t-71 -264.5t-194 -192.5t-268 -71t-267.5 71t-193.5 192.5t-71 264.5zM381 512q0 -105 62.5 -172.5t158.5 -67.5t158.5 67.5t62.5 172.5t-62.5 172.5t-158.5 67.5t-158.5 -67.5t-62.5 -172.5z " />
<glyph unicode="&#x43f;" horiz-adv-x="1236" d="M133 0v1024h971v-1024h-309v754h-353v-754h-309z" />
<glyph unicode="&#x440;" horiz-adv-x="1232" d="M133 -377v1401h309v-61q93 77 226 77q147 0 261.5 -73.5t174 -193.5t59.5 -261t-59.5 -261t-174 -193.5t-261.5 -73.5q-136 0 -226 75v-436h-309zM442 350q63 -84 174 -84q107 0 171.5 70.5t64.5 175.5t-64.5 175.5t-171.5 70.5q-110 0 -174 -86v-322z" />
<glyph unicode="&#x441;" horiz-adv-x="1099" d="M70 512q0 143 71 264.5t193.5 192.5t267.5 71q139 0 258 -65t191 -176l-246 -174q-32 59 -84.5 93t-118.5 34q-96 0 -158.5 -67.5t-62.5 -172.5t62.5 -172.5t158.5 -67.5q66 0 118.5 34t84.5 93l246 -174q-72 -111 -191 -176t-258 -65q-145 0 -267.5 71t-193.5 192.5 t-71 264.5z" />
<glyph unicode="&#x442;" horiz-adv-x="935" d="M37 754v270h862v-270h-287v-754h-309v754h-266z" />
<glyph unicode="&#x443;" d="M-10 1024h327l213 -647l213 647h328l-516 -1401h-328l140 377z" />
<glyph unicode="&#x444;" horiz-adv-x="1591" d="M70 512q0 106 36 201t103.5 168t172.5 116t234 43h25v414h309v-414h25q129 0 234 -43t172.5 -116t104 -168t36.5 -201t-36.5 -201t-104 -168t-172.5 -116t-234 -43h-25v-361h-309v361h-25q-129 0 -234 43t-172.5 116t-103.5 168t-36 201zM381 512q0 -105 64 -175.5 t171 -70.5h25v492h-25q-107 0 -171 -70.5t-64 -175.5zM950 266h25q107 0 171 70.5t64 175.5t-64 175.5t-171 70.5h-25v-492z" />
<glyph unicode="&#x445;" horiz-adv-x="1126" d="M-6 0l368 516l-350 508h359l192 -293l193 293h358l-350 -508l369 -516h-359l-211 307l-211 -307h-358z" />
<glyph unicode="&#x446;" horiz-adv-x="1337" d="M133 0v1024h309v-754h353v754h309v-754h172v-520h-287v250h-856z" />
<glyph unicode="&#x447;" horiz-adv-x="1171" d="M82 659v365h309v-328q0 -66 45 -94.5t113 -28.5q51 0 100.5 14t79.5 38v399h309v-1024h-309v354q-35 -21 -111.5 -36t-146.5 -15q-78 0 -146 21t-123.5 62.5t-87.5 112t-32 160.5z" />
<glyph unicode="&#x448;" horiz-adv-x="1714" d="M133 0v1024h309v-754h260v754h310v-754h260v754h309v-1024h-1448z" />
<glyph unicode="&#x449;" horiz-adv-x="1814" d="M133 0v1024h309v-754h260v754h310v-754h260v754h309v-754h172v-520h-287v250h-1333z" />
<glyph unicode="&#x44a;" horiz-adv-x="1198" d="M31 756v268h551v-289h168q79 0 144.5 -23t107.5 -59.5t71 -84.5t41 -96t12 -95t-12 -97t-41 -100.5t-71 -90t-107.5 -64.5t-144.5 -25h-478v756h-241zM582 268h129q60 0 93.5 30t33.5 81q0 52 -34 82.5t-93 30.5h-129v-224z" />
<glyph unicode="&#x44b;" horiz-adv-x="1564" d="M133 0v1024h309v-289h168q79 0 144.5 -23t107.5 -59.5t71 -84.5t41.5 -96t12.5 -95t-12.5 -97t-41.5 -100.5t-71 -90t-107.5 -64.5t-144.5 -25h-477zM442 268h129q60 0 93.5 30t33.5 81q0 52 -34 82.5t-93 30.5h-129v-224zM1120 0v1024h312v-1024h-312z" />
<glyph unicode="&#x44c;" horiz-adv-x="1058" d="M133 0v1024h309v-289h168q79 0 144.5 -23t107.5 -59.5t71 -84.5t41.5 -96t12.5 -95t-12.5 -97t-41.5 -100.5t-71 -90t-107.5 -64.5t-144.5 -25h-477zM442 268h129q60 0 93.5 30t33.5 81q0 52 -34 82.5t-93 30.5h-129v-224z" />
<glyph unicode="&#x44d;" horiz-adv-x="1112" d="M61 225l246 174q32 -59 84.5 -93t118.5 -34q70 0 124 37.5t79 102.5h-269v225h258q-28 54 -78.5 84.5t-113.5 30.5q-66 0 -118.5 -34t-84.5 -93l-246 174q72 111 191 176t258 65q145 0 267.5 -71t193.5 -192.5t71 -264.5t-71 -264.5t-193.5 -192.5t-267.5 -71 q-139 0 -258 65t-191 176z" />
<glyph unicode="&#x44e;" horiz-adv-x="1722" d="M133 0v1024h309v-377h164q45 171 187.5 282t326.5 111q145 0 268 -71t194 -192.5t71 -264.5t-71 -264.5t-194 -192.5t-268 -71q-184 0 -326.5 111t-187.5 282h-164v-377h-309zM899 512q0 -105 62.5 -172.5t158.5 -67.5t158.5 67.5t62.5 172.5t-62.5 172.5t-158.5 67.5 t-158.5 -67.5t-62.5 -172.5z" />
<glyph unicode="&#x44f;" horiz-adv-x="1118" d="M41 0l235 362q-82 49 -126 132t-44 180q0 156 100 253t277 97h502v-1024h-309v309h-107l-198 -309h-330zM395 659q0 -47 31.5 -75.5t75.5 -28.5h174v223h-176q-51 0 -78 -32t-27 -87z" />
<glyph unicode="&#x451;" horiz-adv-x="1153" d="M70 512q0 228 147 378t381 150q99 0 187 -32t157 -92.5t109.5 -155.5t40.5 -213q0 -36 -7 -90h-718q7 -65 44 -110t83 -63t96 -18q149 0 219 129l246 -166q-72 -113 -193 -179t-270 -66q-101 0 -195.5 39t-167 106.5t-116 167.5t-43.5 215zM190 1325q0 67 48 115.5 t116 48.5t116 -48.5t48 -115.5t-48 -115.5t-116 -48.5t-116 48.5t-48 115.5zM369 637h417q-11 78 -68.5 117t-137.5 39q-69 0 -130 -36.5t-81 -119.5zM678 1325q0 67 48 115.5t116 48.5t116 -48.5t48 -115.5t-48 -115.5t-116 -48.5t-116 48.5t-48 115.5z" />
<glyph unicode="&#x452;" horiz-adv-x="1300" d="M20 963v239h195v252h309v-252h330v-239h-330v-238q44 37 115 58.5t141 21.5q200 0 314 -126.5t114 -348.5v-27q0 -138 -28.5 -252.5t-77 -192.5t-114.5 -132t-140 -78.5t-154 -24.5h-51v293h47q81 0 144 88.5t63 243.5v33q0 110 -46 175.5t-142 65.5q-106 0 -185 -88 v-434h-309v963h-195z" />
<glyph unicode="&#x453;" horiz-adv-x="884" d="M133 0v1024h711v-270h-402v-754h-309zM305 1137l164 317h354l-293 -317h-225z" />
<glyph unicode="&#x454;" horiz-adv-x="1099" d="M70 512q0 143 71 264.5t193.5 192.5t267.5 71q139 0 258 -65t191 -176l-246 -174q-32 59 -84.5 93t-118.5 34q-63 0 -113.5 -30.5t-78.5 -84.5h290v-225h-301q25 -65 79 -102.5t124 -37.5q66 0 118.5 34t84.5 93l246 -174q-72 -111 -191 -176t-258 -65q-145 0 -267.5 71 t-193.5 192.5t-71 264.5z" />
<glyph unicode="&#x455;" horiz-adv-x="849" d="M12 201l236 159q69 -124 188 -124q80 0 80 47q0 28 -23.5 43t-105.5 47l-53 20q-133 52 -202 136.5t-69 193.5q0 139 101.5 228t251.5 89q212 0 323 -161l-176 -174q-65 92 -147 92q-74 0 -74 -47q0 -29 25.5 -45t109.5 -48l43 -16q144 -55 209.5 -135.5t65.5 -196.5 q0 -152 -104.5 -238.5t-266.5 -86.5q-288 0 -412 217z" />
<glyph unicode="&#x456;" horiz-adv-x="577" d="M104 1286q0 76 54 130t131 54t130.5 -54t53.5 -130q0 -70 -41 -117h-287q-41 47 -41 117zM133 0v1024h311v-1024h-311z" />
<glyph unicode="&#x457;" horiz-adv-x="552" d="M-80 1284q0 68 48 116t116 48t116 -48t48 -116t-48 -116t-116 -48t-116 48t-48 116zM121 0v1024h311v-1024h-311zM305 1284q0 68 48.5 116t115.5 48t115.5 -48t48.5 -116t-48.5 -116t-115.5 -48t-115.5 48t-48.5 116z" />
<glyph unicode="&#x458;" horiz-adv-x="573" d="M-70 -84h52q80 0 120.5 27t40.5 96v985h312v-1024q0 -183 -122.5 -280t-330.5 -97h-72v293zM113 1286q0 76 53.5 130t130.5 54t130.5 -54t53.5 -130q0 -70 -41 -117h-286q-41 47 -41 117z" />
<glyph unicode="&#x459;" horiz-adv-x="1527" d="M-31 0l596 1040l174 -305h340q79 0 144.5 -23t107.5 -59.5t71 -84.5t41.5 -96t12.5 -95t-12.5 -97t-41.5 -100.5t-71 -90t-107.5 -64.5t-144.5 -25h-264l-250 461l-262 -461h-334zM881 492l127 -224h32q60 0 93.5 30t33.5 81q0 52 -34 82.5t-93 30.5h-159z" />
<glyph unicode="&#x45a;" horiz-adv-x="1638" d="M133 0v1024h309v-377h332v377h309v-289h107q79 0 144.5 -23t107.5 -59.5t71 -84.5t41.5 -96t12.5 -95t-12.5 -97t-41.5 -100.5t-71 -90t-107.5 -64.5t-144.5 -25h-416v377h-332v-377h-309zM1083 268h68q60 0 93.5 30t33.5 81q0 52 -34 82.5t-93 30.5h-68v-224z" />
<glyph unicode="&#x45b;" horiz-adv-x="1298" d="M20 963v239h195v252h309v-252h330v-239h-330v-238q96 80 236 80q212 0 329 -128.5t117 -340.5v-336h-309v281q0 110 -46 175.5t-142 65.5q-46 0 -97 -23.5t-88 -64.5v-434h-309v963h-195z" />
<glyph unicode="&#x45c;" horiz-adv-x="1148" d="M133 0v1024h309v-514l314 514h338l-320 -522l379 -502h-365l-346 461v-461h-309zM496 1137l163 317h355l-293 -317h-225z" />
<glyph unicode="&#x45e;" d="M-10 1024h327l213 -647l213 647h328l-516 -1401h-328l140 377zM168 1454h231q1 -85 39.5 -129.5t104.5 -44.5t104 44.5t39 129.5h232q-6 -178 -108 -269t-267 -91t-267 91t-108 269z" />
<glyph unicode="&#x45f;" horiz-adv-x="1236" d="M133 0v1024h309v-754h353v754h309v-1024h-342v-250h-287v250h-342z" />
<glyph unicode="&#x462;" horiz-adv-x="1306" d="M39 1004v286h219v164h328v-164h286v-286h-286v-138h211q216 0 332 -118.5t116 -319.5q0 -82 -30 -158t-85.5 -136.5t-141.5 -97t-189 -36.5h-541v1004h-219zM586 299h182q73 0 117.5 37t44.5 106q0 70 -44.5 108t-117.5 38h-182v-289z" />
<glyph unicode="&#x463;" horiz-adv-x="1107" d="M20 784v240h195v430h309v-430h330v-240h-330v-135h178q88 0 155.5 -30.5t104.5 -79t55.5 -101.5t18.5 -106t-18.5 -108t-55.5 -106.5t-105 -84.5t-155 -33h-487v784h-195zM524 236h140q49 0 75.5 26.5t26.5 71.5t-27 72.5t-75 27.5h-140v-198z" />
<glyph unicode="&#x472;" horiz-adv-x="1642" d="M78 727q0 151 59 288.5t158.5 237t237 158.5t288.5 59q202 0 373 -99.5t271 -270.5t100 -373t-100 -373t-271 -270.5t-373 -99.5q-151 0 -288.5 59t-237 158.5t-158.5 237t-59 288.5zM424 608q38 -136 145.5 -222.5t251.5 -86.5t253.5 87.5t146.5 223.5q-77 -26 -168 -26 q-95 0 -237 41t-214 41q-112 0 -178 -58zM438 891q85 35 197 35q101 0 243 -41t209 -41q74 0 123 28q-42 125 -147.5 204t-241.5 79q-131 0 -233.5 -73t-149.5 -191z" />
<glyph unicode="&#x473;" horiz-adv-x="1204" d="M61 512q0 143 71 264.5t194 192.5t268 71t267.5 -71t193.5 -192.5t71 -264.5t-71 -264.5t-193.5 -192.5t-267.5 -71t-268 71t-194 192.5t-71 264.5zM385 428q22 -71 78.5 -113.5t130.5 -42.5t130.5 42.5t78.5 113.5h-418zM395 625h398q-28 59 -80 93t-119 34t-119 -34 t-80 -93z" />
<glyph unicode="&#x474;" horiz-adv-x="1318" d="M-20 1454h368l326 -727l213 477q57 128 147 189t223 61h50v-324q-56 0 -85 -16t-48 -55l-508 -1075z" />
<glyph unicode="&#x475;" horiz-adv-x="1089" d="M-31 1024h357l243 -449l131 252q52 110 140.5 153.5t232.5 43.5v-307q-55 0 -81.5 -11.5t-43.5 -43.5l-383 -678z" />
<glyph unicode="&#x490;" horiz-adv-x="1038" d="M147 0v1454h535v295h315v-619h-522v-1130h-328z" />
<glyph unicode="&#x491;" horiz-adv-x="884" d="M133 0v1024h424v250h287v-520h-402v-754h-309z" />
<glyph unicode="&#x492;" horiz-adv-x="1116" d="M39 584v286h182v584h819v-324h-491v-260h323v-286h-323v-584h-328v584h-182z" />
<glyph unicode="&#x493;" horiz-adv-x="933" d="M31 367v239h162v418h690v-270h-381v-148h205v-239h-205v-367h-309v367h-162z" />
<glyph unicode="&#x496;" horiz-adv-x="2265" d="M-41 0l576 721l-510 733h376l508 -729v729h328v-729l508 729h377l-510 -733l323 -406h258v-618h-315v303h-96l-545 682v-682h-328v682l-544 -682h-406z" />
<glyph unicode="&#x497;" horiz-adv-x="1804" d="M-6 0l379 502l-320 522h338l314 -514v514h309v-514l313 514h338l-319 -522l174 -232h223v-520h-287v250h-96l-346 461v-461h-309v461l-347 -461h-364z" />
<glyph unicode="&#x49a;" horiz-adv-x="1552" d="M147 0v1454h328v-729l508 729h377l-510 -733l324 -406h307v-618h-316v303h-145l-545 682v-682h-328z" />
<glyph unicode="&#x49b;" horiz-adv-x="1232" d="M135 0v1024h309v-514l314 514h338l-320 -522l174 -232h221v-520h-286v250h-94l-347 461v-461h-309z" />
<glyph unicode="&#x4a2;" horiz-adv-x="1669" d="M147 0v1454h328v-569h582v569h327v-1139h213v-618h-315v303h-225v569h-582v-569h-328z" />
<glyph unicode="&#x4a3;" horiz-adv-x="1357" d="M133 0v1024h309v-377h373v377h309v-754h172v-520h-286v250h-195v377h-373v-377h-309z" />
<glyph unicode="&#x4ae;" horiz-adv-x="1343" d="M-31 1454h383l320 -516l319 516h383l-538 -844v-610h-328v610z" />
<glyph unicode="&#x4af;" horiz-adv-x="1130" d="M-31 1024h357l239 -635l240 635h356l-442 -1032v-369h-309v373z" />
<glyph unicode="&#x4b0;" horiz-adv-x="1343" d="M-31 1454h383l318 -510l317 510h387l-538 -844v-24h254v-287h-254v-299h-328v299h-254v287h254v24z" />
<glyph unicode="&#x4b1;" horiz-adv-x="1130" d="M-31 1024h357l239 -635l240 635h356l-422 -983h205v-270h-225v-148h-309v148h-226v270h207z" />
<glyph unicode="&#x4b2;" horiz-adv-x="1511" d="M0 0l459 729l-428 725h379l280 -483l281 483h379l-428 -725l260 -414h258v-618h-316v303h-125l-309 500l-309 -500h-381z" />
<glyph unicode="&#x4b3;" horiz-adv-x="1280" d="M-6 0l368 516l-350 508h359l192 -293l193 293h358l-350 -508l176 -246h279v-520h-287v250h-158l-211 307l-211 -307h-358z" />
<glyph unicode="&#x4b6;" horiz-adv-x="1542" d="M92 958v496h328v-410q0 -125 72 -183t184 -58q164 0 254 41v610h327v-1139h213v-618h-315v303h-225v528q-128 -41 -312 -41q-144 0 -264 59.5t-191 168t-71 243.5z" />
<glyph unicode="&#x4b7;" horiz-adv-x="1273" d="M82 659v365h309v-328q0 -66 45 -94.5t113 -28.5q51 0 100.5 14t79.5 38v399h309v-754h174v-520h-286v250h-197v354q-35 -21 -111.5 -36t-146.5 -15q-78 0 -146 21t-123.5 62.5t-87.5 112t-32 160.5z" />
<glyph unicode="&#x4ba;" horiz-adv-x="1404" d="M147 0v1454h328v-528q128 41 311 41q144 0 264 -59.5t191.5 -168t71.5 -243.5v-496h-328v410q0 125 -72 183t-184 58q-164 0 -254 -41v-610h-328z" />
<glyph unicode="&#x4bb;" horiz-adv-x="1234" d="M133 0v1454h309v-493q94 79 236 79q212 0 329 -128.5t117 -340.5v-571h-309v516q0 110 -46 176t-142 66q-46 0 -97 -23.5t-88 -64.5v-670h-309z" />
<glyph unicode="&#x4c0;" horiz-adv-x="624" d="M147 0v1454h328v-1454h-328z" />
<glyph unicode="&#x4cf;" horiz-adv-x="604" d="M137 0v1454h328v-1454h-328z" />
<glyph unicode="&#x4d8;" horiz-adv-x="1597" d="M74 813h1108q-28 147 -140 244.5t-262 97.5q-116 0 -211 -55t-153 -148l-248 203q103 145 264 230t348 85q150 0 286.5 -59t236 -158.5t158.5 -237t59 -288.5q0 -153 -53 -289t-146.5 -236.5t-229.5 -159t-294 -58.5q-333 0 -528.5 224t-194.5 605zM436 539 q42 -111 133.5 -175.5t227.5 -64.5q133 0 215.5 62.5t136.5 177.5h-713z" />
<glyph unicode="&#x4d9;" horiz-adv-x="1157" d="M66 477q0 43 6 90h719q-5 49 -27.5 87t-55.5 60t-69 33t-72 11q-149 0 -219 -129l-246 166q72 113 193 179t270 66q101 0 195.5 -39t167 -106.5t116 -167.5t43.5 -215q0 -150 -64 -270t-182.5 -189t-271.5 -69q-100 0 -190 32t-160.5 92.5t-111.5 155.5t-41 213zM371 387 q11 -78 69.5 -117t141.5 -39q29 0 58 7.5t59.5 24t54.5 48.5t34 76h-417z" />
<glyph unicode="&#x4e2;" horiz-adv-x="1540" d="M147 -16v1470h328v-778l918 794v-1470h-328v778zM522 1642v197h676v-197h-676z" />
<glyph unicode="&#x4e3;" horiz-adv-x="1257" d="M133 -18v1042h309v-481l682 497v-1040h-309v477zM340 1186v196h676v-196h-676z" />
<glyph unicode="&#x4e8;" horiz-adv-x="1642" d="M78 727q0 151 59 288.5t158.5 237t237 158.5t288.5 59q202 0 373 -99.5t271 -270.5t100 -373t-100 -373t-271 -270.5t-373 -99.5q-151 0 -288.5 59t-237 158.5t-158.5 237t-59 288.5zM430 584q44 -126 150 -205.5t241 -79.5t241 79.5t150 205.5h-782zM430 870h782 q-44 126 -150 205.5t-241 79.5t-241 -79.5t-150 -205.5z" />
<glyph unicode="&#x4e9;" horiz-adv-x="1204" d="M70 512q0 143 71 264.5t193.5 192.5t267.5 71t268 -71t194 -192.5t71 -264.5t-71 -264.5t-194 -192.5t-268 -71t-267.5 71t-193.5 192.5t-71 264.5zM393 428q22 -71 78.5 -113.5t130.5 -42.5t130.5 42.5t78.5 113.5h-418zM403 625h398q-28 59 -80 93t-119 34t-119 -34 t-80 -93z" />
<glyph unicode="&#x4ee;" horiz-adv-x="1419" d="M-31 1454h383l371 -713l354 713h373l-723 -1454h-373l181 362zM385 1642v197h676v-197h-676z" />
<glyph unicode="&#x4ef;" d="M-10 1024h327l213 -647l213 647h328l-516 -1401h-328l140 377zM213 1186v196h676v-196h-676z" />
<glyph unicode="&#x2000;" horiz-adv-x="952" />
<glyph unicode="&#x2001;" horiz-adv-x="1905" />
<glyph unicode="&#x2002;" horiz-adv-x="952" />
<glyph unicode="&#x2003;" horiz-adv-x="1905" />
<glyph unicode="&#x2004;" horiz-adv-x="635" />
<glyph unicode="&#x2005;" horiz-adv-x="476" />
<glyph unicode="&#x2006;" horiz-adv-x="317" />
<glyph unicode="&#x2007;" horiz-adv-x="317" />
<glyph unicode="&#x2008;" horiz-adv-x="238" />
<glyph unicode="&#x2009;" horiz-adv-x="381" />
<glyph unicode="&#x200a;" horiz-adv-x="105" />
<glyph unicode="&#x2010;" horiz-adv-x="757" d="M88 430v295h582v-295h-582z" />
<glyph unicode="&#x2011;" horiz-adv-x="757" d="M88 430v295h582v-295h-582z" />
<glyph unicode="&#x2012;" horiz-adv-x="757" d="M88 430v295h582v-295h-582z" />
<glyph unicode="&#x2013;" horiz-adv-x="1167" d="M88 430v295h991v-295h-991z" />
<glyph unicode="&#x2014;" horiz-adv-x="1767" d="M88 430v295h1591v-295h-1591z" />
<glyph unicode="&#x2018;" horiz-adv-x="630" d="M137 782v357l131 315h178l-90 -315h138v-357h-357z" />
<glyph unicode="&#x2019;" horiz-adv-x="630" d="M137 1098v356h357v-356l-132 -316h-178l90 316h-137z" />
<glyph unicode="&#x201a;" horiz-adv-x="630" d="M137 0v356h357v-356l-132 -315h-178l90 315h-137z" />
<glyph unicode="&#x201c;" horiz-adv-x="1089" d="M137 782v357l131 315h178l-90 -315h138v-357h-357zM596 782v357l131 315h178l-90 -315h137v-357h-356z" />
<glyph unicode="&#x201d;" horiz-adv-x="1089" d="M137 1098v356h357v-356l-132 -316h-178l90 316h-137zM596 1098v356h356v-356l-131 -316h-178l90 316h-137z" />
<glyph unicode="&#x201e;" horiz-adv-x="1089" d="M137 0v356h357v-356l-132 -315h-178l90 315h-137zM596 0v356h356v-356l-131 -315h-178l90 315h-137z" />
<glyph unicode="&#x2022;" horiz-adv-x="823" d="M133 618q0 116 81.5 197.5t197.5 81.5q115 0 196.5 -81.5t81.5 -197.5t-81 -197t-197 -81t-197.5 81.5t-81.5 196.5z" />
<glyph unicode="&#x2026;" horiz-adv-x="1757" d="M57 205q0 92 65 156.5t157 64.5t156.5 -64.5t64.5 -156.5t-64.5 -156.5t-156.5 -64.5t-157 64.5t-65 156.5zM643 205q0 92 64.5 156.5t156.5 64.5t156.5 -64.5t64.5 -156.5t-64.5 -156.5t-156.5 -64.5t-156.5 64.5t-64.5 156.5zM1229 205q0 92 64.5 156.5t156.5 64.5 t156.5 -64.5t64.5 -156.5t-64.5 -156.5t-156.5 -64.5t-156.5 64.5t-64.5 156.5z" />
<glyph unicode="&#x202f;" horiz-adv-x="381" />
<glyph unicode="&#x2039;" horiz-adv-x="696" d="M70 512l336 494l204 -140l-241 -354l241 -354l-204 -140z" />
<glyph unicode="&#x203a;" horiz-adv-x="696" d="M86 158l205 -140l336 494l-336 494l-205 -140l242 -354z" />
<glyph unicode="&#x205f;" horiz-adv-x="476" />
<glyph unicode="&#x20ac;" horiz-adv-x="1452" d="M51 524l45 135h99q-2 23 -2 68t2 68h-144l45 135h125q67 236 265 388t450 152q251 0 450 -153l-98 -291q-59 69 -153.5 112.5t-196.5 43.5q-129 0 -234 -67.5t-157 -184.5h708l-45 -135h-700q-4 -23 -4 -68q0 -48 4 -68h653l-45 -135h-571q52 -118 156 -185t233 -67 q190 0 336 123v-332q-155 -79 -336 -79q-252 0 -450 152t-265 388h-170z" />
<glyph unicode="&#x2122;" horiz-adv-x="1552" d="M61 1270v184h525v-184h-168v-543h-189v543h-168zM700 727v735l365 -368l365 368v-735h-189v289l-176 -178l-176 178v-289h-189z" />
<glyph unicode="&#x25fc;" horiz-adv-x="1024" d="M0 0v1024h1024v-1024h-1024z" />
</font>
</defs>
</svg>
